<svg xmlns="http://www.w3.org/2000/svg" viewBox="0 0 240 180">
  <g stroke="#5a3d2b" stroke-width="5.5" stroke-linecap="round" stroke-linejoin="round">
    <!-- string and nail -->
    <path d="M52 40 120 13 188 40" fill="none" stroke-width="3"/>
    <circle cx="120" cy="12" r="5" fill="#d8a84a"/>
    <!-- chunky wooden frame -->
    <rect x="18" y="34" width="204" height="140" rx="16" fill="#d9a066"/>
    <path d="M24 60C24 46 31 40 44 40H196C203 40 208 42 211 46C205 45 199 45 190 45H46C35 45 29 50 24 60z" fill="#fff8ea" opacity=".5" stroke="none"/>
    <path d="M220.5 60V158C220.5 166 214 171.5 206 171.5H34C28 171.5 23 169 21 164C25 166 30 166.5 36 166.5H204C210 166.5 214 162 214 156V58C216.5 57 219 58 220.5 60z" fill="#5a3d2b" opacity=".16" stroke="none"/>
    <path d="M26 42 40 54M214 42 200 54M26 166 40 154M214 166 200 154" fill="none" stroke-width="3.5" opacity=".4"/>
    <!-- photo -->
    <rect x="38" y="52" width="164" height="104" rx="5" fill="#cfe3dd"/>
    <circle cx="176" cy="76" r="12" fill="#e8b44f" stroke-width="3.5"/>
    <path d="M38 134C70 124 120 126 150 132C172 136 190 134 202 130V151C202 154 199 156 196 156H43C40 156 38 154 38 151z" fill="#9bb58a" stroke-width="3.5"/>
    <!-- parent otter -->
    <path d="M56 156C56 140 70 130 92 130C114 130 126 140 126 156z" fill="#b5774c"/>
    <circle cx="67" cy="87" r="7" fill="#9e6340"/>
    <circle cx="119" cy="86" r="7" fill="#9e6340"/>
    <ellipse cx="93" cy="106" rx="32" ry="28" fill="#b5774c"/>
    <path d="M109 82A32 28 0 0 1 104 132A40 38 0 0 0 109 82z" fill="#5a3d2b" opacity=".16" stroke="none"/>
    <ellipse cx="96" cy="117" rx="15" ry="11" fill="#fdf3e3" stroke-width="3.5"/>
    <path d="M90 111C90 107 102 107 102 111C102 114 98 116 96 116C94 116 90 114 90 111z" fill="#3f2a1e" stroke="none"/>
    <path d="M90 121C93 124 99 124 102 121" fill="none" stroke-width="2.5"/>
    <path d="M81 114 70 112M81 120 71 122M111 114 122 112M111 120 121 122" fill="none" stroke-width="3" opacity=".5"/>
    <g fill="#3f2a1e" stroke="none"><ellipse cx="82" cy="100" rx="4" ry="5"/><ellipse cx="108" cy="99" rx="4" ry="5"/></g>
    <g fill="#fffaf0" stroke="none"><circle cx="80.5" cy="98" r="1.5"/><circle cx="106.5" cy="97" r="1.5"/></g>
    <ellipse cx="73" cy="113" rx="5" ry="3" fill="#ec8478" opacity=".5" stroke="none"/>
    <!-- pup otter -->
    <path d="M126 156C126 145 136 138 152 138C168 138 178 145 178 156z" fill="#b5774c"/>
    <circle cx="133" cy="107" r="5.5" fill="#9e6340"/>
    <circle cx="171" cy="108" r="5.5" fill="#9e6340"/>
    <ellipse cx="152" cy="121" rx="23" ry="20" fill="#b5774c"/>
    <path d="M163.5 103.5A23 20 0 0 1 160 140A30 28 0 0 0 163.5 103.5z" fill="#5a3d2b" opacity=".16" stroke="none"/>
    <ellipse cx="150" cy="129" rx="11" ry="8" fill="#fdf3e3" stroke-width="3.5"/>
    <path d="M146 125C146 122 154 122 154 125C154 127 151.5 128.5 150 128.5C148.5 128.5 146 127 146 125z" fill="#3f2a1e" stroke="none"/>
    <path d="M146 131C148 133 152 133 154 131" fill="none" stroke-width="2.5"/>
    <path d="M139 127 131 126M161 127 169 126" fill="none" stroke-width="3" opacity=".5"/>
    <g fill="#3f2a1e" stroke="none"><ellipse cx="142" cy="116" rx="3.5" ry="4.5"/><ellipse cx="161" cy="116" rx="3.5" ry="4.5"/></g>
    <g fill="#fffaf0" stroke="none"><circle cx="140.5" cy="114.5" r="1.3"/><circle cx="159.5" cy="114.5" r="1.3"/></g>
    <ellipse cx="166" cy="126" rx="4" ry="2.5" fill="#ec8478" opacity=".5" stroke="none"/>
    <!-- tiny heart -->
    <path d="M131 72C127 66 119 70 123 77C125 81 131 85 131 85C131 85 137 81 139 77C143 70 135 66 131 72z" fill="#d9785a" stroke-width="3"/>
    <!-- photo edge redrawn over contents, inner frame shadow -->
    <path d="M38 76V57C38 54 40 52 43 52H197C200 52 202 54 202 57V60C200 58 198 58 195 58H48C44 58 43 60 43 63V76z" fill="#5a3d2b" opacity=".15" stroke="none"/>
    <rect x="38" y="52" width="164" height="104" rx="5" fill="none"/>
  </g>
</svg>
