<svg xmlns="http://www.w3.org/2000/svg" viewBox="0 0 240 150">
  <g stroke="#5a3d2b" stroke-width="7" stroke-linecap="round" stroke-linejoin="round">
    <!-- inside of the bowl -->
    <ellipse cx="120" cy="96" rx="104" ry="16" fill="#fbf1dc"/>
    <ellipse cx="120" cy="97" rx="98" ry="12" fill="#5a3d2b" opacity=".2" stroke="none"/>
    <!-- grapes -->
    <path d="M196 46C196 38 200 32 208 28" fill="none" stroke-width="5"/>
    <circle cx="184" cy="60" r="15" fill="#a98fbf"/>
    <circle cx="210" cy="62" r="15" fill="#a98fbf"/>
    <circle cx="172" cy="82" r="14" fill="#a98fbf"/>
    <circle cx="219" cy="86" r="13" fill="#a98fbf"/>
    <circle cx="196" cy="86" r="15" fill="#a98fbf"/>
    <path d="M177 54C178 51 180 50 183 49M203 56C204 53 206 52 209 51M189 80C190 77 192 76 195 75" fill="none" stroke="#fff8ea" stroke-width="4" opacity=".55"/>
    <!-- orange -->
    <circle cx="150" cy="66" r="34" fill="#eb9447"/>
    <path d="M162 68C174 60 178 76 176 86C172 94 164 98 154 100C172 98 184 84 184 66C184 56 180 46 172 40C176 48 174 62 162 68z" fill="#5a3d2b" opacity=".14" stroke="none"/>
    <path d="M130 56C133 48 139 43 147 41" fill="none" stroke="#fff8ea" stroke-width="5" opacity=".55"/>
    <path d="M150 33C154 26 163 24 170 26C166 33 157 35 150 33z" fill="#7fae6e" stroke-width="5"/>
    <!-- apple -->
    <path d="M88 40C88 30 90 24 95 20" fill="none" stroke-width="5"/>
    <path d="M92 28C100 18 114 16 122 22C114 32 100 34 92 28z" fill="#7fae6e" stroke-width="5"/>
    <path d="M88 40C72 30 48 34 48 64C48 90 68 104 88 100C108 104 128 90 128 64C128 34 104 30 88 40z" fill="#d65f4c"/>
    <path d="M112 42C122 50 124 66 120 78C116 90 106 98 96 100C112 102 128 88 128 64C128 50 122 42 112 38z" fill="#5a3d2b" opacity=".15" stroke="none"/>
    <path d="M58 58C59 50 64 44 71 42" fill="none" stroke="#fff8ea" stroke-width="5" opacity=".55"/>
    <!-- bowl foot -->
    <path d="M86 134H154L160 146.5H80z" fill="#6fa7a0"/>
    <path d="M140 136H154L160 146.5H146z" fill="#5a3d2b" opacity=".16" stroke="none"/>
    <!-- bowl front -->
    <path d="M16 96A104 16 0 0 0 224 96C220 122 184 138 120 138C56 138 20 122 16 96z" fill="#6fa7a0"/>
    <path d="M30 122C60 134 180 134 210 122C196 132 166 138 120 138C74 138 44 132 30 122z" fill="#5a3d2b" opacity=".16" stroke="none"/>
    <path d="M30 110C44 116 60 119 78 121" fill="none" stroke="#fff8ea" stroke-width="5" opacity=".5"/>
    <g fill="#fbf1dc" stroke="none" opacity=".85">
      <circle cx="96" cy="127" r="4.5"/><circle cx="124" cy="128" r="4.5"/><circle cx="152" cy="127" r="4.5"/><circle cx="180" cy="123" r="4.5"/>
    </g>
    <!-- banana -->
    <path d="M154 80L167 68C170 65 175 68 173 72L164 86z" fill="#a86f45"/>
    <path d="M22 70C20 62 30 58 34 62C50 86 114 90 158 76C164 74 168 82 164 88C112 118 34 104 22 70z" fill="#f0c95a"/>
    <path d="M164 88C112 118 34 104 26 78C50 100 112 108 162 84z" fill="#5a3d2b" opacity=".14" stroke="none"/>
    <path d="M34 80C60 102 118 104 154 90" fill="none" stroke-width="4" opacity=".4"/>
    <path d="M40 74C58 88 88 92 118 91" fill="none" stroke="#fff8ea" stroke-width="5" opacity=".55"/>
  </g>
</svg>
