<svg xmlns="http://www.w3.org/2000/svg" viewBox="0 0 240 220">
  <g stroke="#5a3d2b" stroke-width="7" stroke-linecap="round" stroke-linejoin="round">
    <!-- string from the nail -->
    <path d="M78.5 40 120 14 162.5 40" fill="none" stroke-width="4.5" opacity=".8"/>
    <!-- paper -->
    <path d="M36 50Q36 42 44 42H196Q204 42 204 50V184L178 210H44Q36 210 36 202z" fill="#fbf1dc"/>
    <path d="M196 50V184L178 202H188L204 186V50Q204 44 199 43z" fill="#5a3d2b" opacity=".14" stroke="none"/>
    <path d="M178 210V192Q178 184 186 184H204z" fill="#ead9bd"/>
    <!-- picture: mountain and sun -->
    <rect x="52" y="60" width="136" height="64" rx="5" fill="#ffe7a3" stroke-width="4"/>
    <circle cx="156" cy="82" r="11" fill="#e8b44f" stroke-width="4"/>
    <path d="M54 122 92 74 112 98 126 84 186 122z" fill="#9bb58a" stroke-width="4"/>
    <path d="M80 89 92 74 104.5 89 98 85 92 90 86 85z" fill="#fff8ea" stroke-width="4"/>
    <!-- day squares -->
    <g fill="#ead9bd" stroke-width="4">
      <rect x="52" y="136" width="28" height="26" rx="5"/>
      <rect x="88" y="136" width="28" height="26" rx="5"/>
      <rect x="124" y="136" width="28" height="26" rx="5"/>
      <rect x="160" y="136" width="28" height="26" rx="5"/>
      <rect x="52" y="170" width="28" height="26" rx="5"/>
      <rect x="88" y="170" width="28" height="26" rx="5"/>
      <rect x="124" y="170" width="28" height="26" rx="5"/>
    </g>
    <path d="M138 148C135.5 142 127 142.5 127 149.5C127 154.5 133 158 138 161.5C143 158 149 154.5 149 149.5C149 142.5 140.5 142 138 148z" fill="#d9785a" stroke="none"/>
    <path d="M126 135C134 129.5 150 130 155 140C159 149 154 162 142 165.5C130 168 120 161 120 150C120 142 125 136 133 134" fill="none" stroke="#d9785a" stroke-width="4"/>
    <!-- binder rings -->
    <circle cx="78.5" cy="53" r="4" fill="#5a3d2b" stroke="none"/>
    <circle cx="162.5" cy="53" r="4" fill="#5a3d2b" stroke="none"/>
    <path d="M71 53C68 36 89 34 86 52M155 53C152 36 173 34 170 52" fill="none" stroke-width="10"/>
    <path d="M71 53C68 36 89 34 86 52M155 53C152 36 173 34 170 52" fill="none" stroke="#d8a84a" stroke-width="4"/>
    <!-- nail -->
    <circle cx="120" cy="13" r="6" fill="#d8a84a"/>
  </g>
</svg>
